# xmcd
#
# Track frame offsets:
#	150
#	12767
#	24495
#	37562
#	48640
#	57227
#	69425
#	82182
#	99385
#	111470
#	123155
#	131965
#	140517
#	152802
#	169192
#	179140
#
# Disc length: 2605 seconds
#
# Revision: 5
# Processed by: cddbd v1.4PL0 Copyright (c) Steve Scherf et al.
# Submitted via: MusicWizard 6.0.0
#
DISCID=de0a2b10
DTITLE=Johnny Cash - Live Recordings
DYEAR=1995
DGENRE=Country
TTITLE0=Folsom Prison Blues
TTITLE1=These Hands
TTITLE2=Peace In The Valley
TTITLE3=Rock Island Line
TTITLE4=The Wall
TTITLE5=I Still Miss Someone
TTITLE6=Ring Of Fire
TTITLE7=Sunday Morning Coming Down
TTITLE8=The Highwayman
TTITLE9=Big River
TTITLE10=I Got Stripes
TTITLE11=Get Rhythm
TTITLE12=Sixteen Tons
TTITLE13=A Bot Named Sue
TTITLE14=Help Me
TTITLE15=City Of New Orleans
EXTD=(c)1995 Fat Boy Records Ltd UK\nFATCD 235
EXTT0=
EXTT1=
EXTT2=
EXTT3=
EXTT4=
EXTT5=
EXTT6=
EXTT7=
EXTT8=
EXTT9=
EXTT10=
EXTT11=
EXTT12=
EXTT13=
EXTT14=
EXTT15=
PLAYORDER=
